<svg xmlns="http://www.w3.org/2000/svg" width="355.706" height="355.548" viewBox="0 0 94.114 94.072" fill="#f1febe" xmlns:v="https://vecta.io/nano"><path d="M37.745 0C16.899-.001 0 16.898 0 37.745S16.899 75.49 37.745 75.49 75.49 58.591 75.49 37.745 58.591 0 37.745 0zm-.32 7.677c16.783 0 30.388 13.605 30.388 30.388S54.208 68.453 37.425 68.453 7.037 54.847 7.037 38.064 20.642 7.676 37.425 7.677zm30.264 14.388c10.53 11.601 3.24 30.606-.535 35.337 4.442-11.073 6.603-22.755.535-35.337zM60.614 73.52c.891-.265.584-1.385 2.673-.794l1.671-2.047 10.192 7.477-3.091 4.135zm3.551-4.762s.275-2.032.668-2.966c.321-.763 1.42-1.128 1.42-1.128l12.489 8.939-2.632 3.676zm9.189 14.996l6.976-9.106 12.322 9.022-6.307 9.189zm14.954 10.317l5.806-8.605c0-.501-.668-1.086-.668-1.086l-6.516 8.73zM37.373 13.312c-.227.006-.464.028-.711.066-3.945.609-4.597 2.307-5.453 4.264-.914 2.09-.284 6.765.949 11.081a31.32 31.32 0 0 0-3.003-3.823c-2.265-2.451-5.348-5.852-9.652-2.849s-1.326 6.197-2.322 9.035c-.992 2.829-4.659 4.196-4.057 8.143s2.299 4.601 4.255 5.46c2.611 1.147 8.49-.32 12.839-2.321-1.716 1.316-3.52 2.808-5.154 4.225-2.522 2.186-6.019 5.159-3.155 9.556s6.151 1.523 8.956 2.608c2.796 1.082 2.889 4.515 6.852 4.039s5.718-2.933 6.089-4.355c.563-2.157-1.278-8.302-3.226-13.198 4.068 6.3 5.201 12.217 4.76 19.706h2.707c1.091-5.801-2.309-15.046-6.635-20.989 2.058 1.95 4.332 4.359 5.604 6.729 1.578 2.94 5.543 4.568 8.663 2.451 4.315-2.986 1.893-5.431 2.9-8.265 1.003-2.825 4.675-4.178 4.087-8.127s-2.282-4.609-4.234-5.476c-2.252-.999-7.839.571-12.661 2.51 1.859-1.392 3.695-2.96 5.245-4.397 2.447-2.269 5.842-5.359 2.832-9.657s-6.199-1.315-9.038-2.306c-2.654-.926-4.027-4.205-7.439-4.109z"/></svg>