<?xml version="1.0" encoding="UTF-8" standalone="no"?>
<!-- Created with Inkscape (http://www.inkscape.org/) -->

<svg
   width="94.114311mm"
   height="94.071533mm"
   viewBox="0 0 94.114311 94.071533"
   version="1.1"
   id="svg1"
   xml:space="preserve"
   xmlns="http://www.w3.org/2000/svg"
   xmlns:svg="http://www.w3.org/2000/svg"><defs
     id="defs1" /><g
     id="layer1"
     transform="translate(-91.39155,-21.318443)"><g
       id="g12"
       transform="translate(0.88303369,2.6758965)"><path
         id="path5-6"
         style="fill:#f1febe;fill-opacity:1;stroke-width:0.309117;stroke-linecap:round"
         d="m 128.25402,18.642545 c -20.84613,-1.7e-4 -37.745386,16.89885 -37.745504,37.74498 -1.7e-4,20.84633 16.899164,37.74567 37.745504,37.7455 20.84613,-1.2e-4 37.74515,-16.89937 37.74498,-37.7455 -1.2e-4,-20.84593 -16.89905,-37.74486 -37.74498,-37.74498 z m -0.31988,7.67705 c 16.78266,1.5e-4 30.38766,13.60515 30.38781,30.38781 1.3e-4,16.78286 -13.60495,30.38817 -30.38781,30.38832 -16.78306,1.4e-4 -30.38846,-13.60526 -30.388327,-30.38832 1.49e-4,-16.78286 13.605467,-30.38795 30.388327,-30.38781 z m 30.2643,14.38827 c 10.52981,11.60064 3.23977,30.60577 -0.53537,35.33737 4.44169,-11.07346 6.6034,-22.75514 0.53537,-35.33737 z" /><path
         style="fill:#f1febe;fill-opacity:1;stroke-width:0.264583;stroke-linecap:round"
         d="m 151.12321,92.163175 c 0.89109,-0.26454 0.58373,-1.38513 2.67328,-0.79363 l 1.67081,-2.04673 10.1919,7.47684 -3.09099,4.135245 z"
         id="path8-6" /><path
         style="fill:#f1febe;fill-opacity:1;stroke-width:0.264583;stroke-linecap:round"
         d="m 154.67367,87.401385 c 0,0 0.27472,-2.03189 0.66832,-2.96568 0.32144,-0.76258 1.42018,-1.12779 1.42018,-1.12779 l 12.48926,8.9388 -2.63152,3.67577 z"
         id="path9-0" /><path
         style="fill:#f1febe;fill-opacity:1;stroke-width:0.264583;stroke-linecap:round"
         d="m 163.86309,102.39686 6.9756,-9.105885 12.32218,9.022345 -6.30728,9.18942 z"
         id="path10-2" /><path
         style="fill:#f1febe;fill-opacity:1;stroke-width:0.264583;stroke-linecap:round"
         d="m 178.81678,112.71407 5.80605,-8.60464 c 0,-0.50124 -0.66832,-1.08602 -0.66832,-1.08602 l -6.51614,8.72995 z"
         id="path11-5" /><path
         id="path7-0-4-4-9-1"
         style="fill:#f1febe;fill-opacity:1;stroke-width:0.264583;stroke-linecap:round"
         d="m 127.88172,31.954725 c -0.22748,0.006 -0.46396,0.0281 -0.71055,0.0661 -3.94541,0.60915 -4.59741,2.30745 -5.45291,4.26434 -0.91361,2.08984 -0.28428,6.76488 0.94878,11.08098 -0.89433,-1.33689 -1.9123,-2.64294 -3.00292,-3.82302 -2.26495,-2.45077 -5.34832,-5.85178 -9.6516,-2.84944 -4.30329,3.00233 -1.32615,6.19676 -2.32182,9.03459 -0.99249,2.82875 -4.65892,4.1962 -4.0566,8.14266 0.60233,3.94644 2.29912,4.60074 4.25452,5.45961 2.61107,1.14687 8.48972,-0.31956 12.83901,-2.3213 -1.71645,1.31567 -3.51985,2.80825 -5.15369,4.22455 -2.52159,2.18581 -6.01873,5.1594 -3.15485,9.556 2.86388,4.39667 6.15134,1.52263 8.95604,2.60811 2.79573,1.082 2.88868,4.51496 6.85231,4.03851 3.96362,-0.47645 5.71763,-2.93292 6.08852,-4.35477 0.56277,-2.15744 -1.27761,-8.30198 -3.22565,-13.19816 4.06777,6.29956 5.20097,12.21723 4.76043,19.70629 h 2.70734 c 1.09087,-5.80149 -2.30944,-15.04623 -6.63475,-20.98942 2.05768,1.94965 4.332,4.35877 5.60431,6.72931 1.57817,2.94037 5.54346,4.56762 8.66252,2.45101 4.31458,-2.98604 1.89316,-5.43108 2.89955,-8.26513 1.00316,-2.82495 4.67452,-4.17843 4.08709,-8.12715 -0.58743,-3.94867 -2.2817,-4.60938 -4.23385,-5.47563 -2.25214,-0.99936 -7.83907,0.57123 -12.66124,2.51044 1.85942,-1.39208 3.69459,-2.95964 5.24464,-4.39715 2.44686,-2.2692 5.84212,-5.3587 2.8324,-9.65677 -3.00976,-4.29811 -6.19868,-1.31504 -9.0382,-2.30581 -2.65356,-0.92587 -4.02665,-4.20454 -7.43883,-4.10879 z" /></g></g></svg>
