<?xml version="1.0" encoding="UTF-8" standalone="no"?>
<!-- Created with Inkscape (http://www.inkscape.org/) -->

<svg
   width="210mm"
   height="297mm"
   viewBox="0 0 210 297"
   version="1.1"
   id="svg1"
   xml:space="preserve"
   sodipodi:docname="logo.svg"
   inkscape:version="1.3.2 (091e20e, 2023-11-25)"
   xmlns:inkscape="http://www.inkscape.org/namespaces/inkscape"
   xmlns:sodipodi="http://sodipodi.sourceforge.net/DTD/sodipodi-0.dtd"
   xmlns="http://www.w3.org/2000/svg"
   xmlns:svg="http://www.w3.org/2000/svg"><sodipodi:namedview
     id="namedview1"
     pagecolor="#ffffff"
     bordercolor="#cccccc"
     borderopacity="1"
     inkscape:showpageshadow="0"
     inkscape:pageopacity="1"
     inkscape:pagecheckerboard="0"
     inkscape:deskcolor="#d1d1d1"
     inkscape:document-units="mm"
     inkscape:zoom="0.47047329"
     inkscape:cx="492.05769"
     inkscape:cy="572.82742"
     inkscape:window-width="1152"
     inkscape:window-height="1026"
     inkscape:window-x="640"
     inkscape:window-y="66"
     inkscape:window-maximized="0"
     inkscape:current-layer="layer1" /><defs
     id="defs1"><filter
       inkscape:label="Opacity"
       style="color-interpolation-filters:sRGB;"
       id="filter2"
       x="0"
       y="0"
       width="1"
       height="1"><feColorMatrix
         values="1 0 0 0 0 0 1 0 0 0 0 0 1 0 0 0 0 0 5 -1 "
         result="colormatrix"
         id="feColorMatrix2" /><feComposite
         in2="colormatrix"
         operator="arithmetic"
         k2="0.288754"
         result="fbSourceGraphic"
         id="feComposite2" /><feColorMatrix
         result="fbSourceGraphicAlpha"
         in="fbSourceGraphic"
         values="0 0 0 -1 0 0 0 0 -1 0 0 0 0 -1 0 0 0 0 1 0"
         id="feColorMatrix3" /><feColorMatrix
         id="feColorMatrix4"
         values="1 0 0 0 0 0 1 0 0 0 0 0 1 0 0 0 0 0 5 -1 "
         result="colormatrix"
         in="fbSourceGraphic" /><feComposite
         id="feComposite4"
         in2="colormatrix"
         operator="arithmetic"
         k2="0.288754"
         result="composite" /></filter></defs><g
     inkscape:groupmode="layer"
     id="layer2"
     inkscape:label="Layer 2" /><g
     inkscape:label="Layer 1"
     inkscape:groupmode="layer"
     id="layer1"><rect
       style="opacity:1;fill:#000000;fill-opacity:1;stroke-width:0.288634;stroke-linecap:round"
       id="rect12"
       width="145.16737"
       height="155.87097"
       x="63.218056"
       y="1.0034611"
       ry="6.6852098" /><path
       id="path5"
       style="opacity:1;fill:#000000;stroke-width:0.309117;stroke-linecap:round"
       d="m 52.120648,174.64273 c -20.846131,-1.7e-4 -37.745382,16.89885 -37.7455,37.74498 -1.7e-4,20.84633 16.899166,37.74567 37.7455,37.7455 20.846134,-1.2e-4 37.745154,-16.89937 37.744984,-37.7455 -1.2e-4,-20.84593 -16.89905,-37.74486 -37.744984,-37.74498 z m -0.319877,7.67705 c 16.782663,1.5e-4 30.387661,13.60515 30.387811,30.38781 1.3e-4,16.78286 -13.604949,30.38817 -30.387811,30.38832 -16.783063,1.4e-4 -30.388459,-13.60526 -30.388326,-30.38832 1.49e-4,-16.78286 13.605462,-30.38795 30.388326,-30.38781 z m 30.264301,14.38827 c 10.52981,11.60064 3.23977,30.60577 -0.53537,35.33737 4.44169,-11.07346 6.6034,-22.75514 0.53537,-35.33737 z"
       sodipodi:nodetypes="cccccsssssccc"
       inkscape:export-filename="logo32.png"
       inkscape:export-xdpi="8.6363239"
       inkscape:export-ydpi="8.6363239" /><path
       id="path1"
       style="fill:#008000;stroke-width:0.264583;stroke-linecap:round"
       d="m 42.59187,17.535869 c 9.22659,7.677281 11.890055,45.830198 -4.03456,30.97433 -8.591059,-8.01449 -24.754919,-2.515174 -26.899635,-14.344528 -1.277506,-7.046187 7.499822,-10.034526 7.499822,-10.034526 0,0 -3.798973,-9.183016 0.874875,-12.741769 5.40966,-4.1190138 13.332908,-1.5307879 22.559498,6.146493 z"
       sodipodi:nodetypes="zsscsz" /><path
       id="path7-0-4-4"
       style="opacity:1;stroke-width:0.264583;stroke-linecap:round"
       d="m 35.192521,56.84154 c -0.22748,0.006 -0.46397,0.0281 -0.71056,0.0661 -3.9454,0.60915 -4.5974,2.30745 -5.45289,4.264339 -0.91362,2.08984 -0.28429,6.76488 0.94878,11.08098 -0.89433,-1.33689 -1.91231,-2.64294 -3.00292,-3.82302 -2.26496,-2.45077 -9.65161,-2.84944 -9.65161,-2.84944 0,0 -1.32615,6.19676 -2.32182,9.03459 -0.99249,2.82875 -4.0566,8.14266 -4.0566,8.14266 0,0 2.29912,4.60074 4.25452,5.45961 2.61107,1.14687 8.48972,-0.31956 12.83901,-2.3213 -1.71644,1.31567 -3.51984,2.80825 -5.15369,4.22455 -2.52159,2.18581 -3.15485,9.555998 -3.15485,9.555998 0,0 6.15134,1.522633 8.95605,2.608113 2.79572,1.082 2.88867,4.51496 6.85229,4.03851 3.96362,-0.47645 6.08852,-4.35477 6.08852,-4.35477 0,0 -1.2776,-8.301981 -3.22564,-13.198161 4.06776,6.299558 5.20096,12.217231 4.76043,19.706291 h 2.70733 c 1.09087,-5.80149 -2.30943,-15.046231 -6.63474,-20.989421 2.05767,1.94965 4.33199,4.35877 5.60431,6.72931 1.57817,2.940368 8.66252,2.451008 8.66252,2.451008 0,0 1.89317,-5.431078 2.89956,-8.265128 1.00316,-2.82495 4.67452,-4.17843 4.08709,-8.12715 -0.58743,-3.94867 -4.23385,-5.47563 -4.23385,-5.47563 0,0 -7.83907,0.57123 -12.66124,2.51044 1.85942,-1.39208 3.13379,-3.61391 4.68384,-5.05142 2.44685,-2.2692 4.4869,-7.75256 4.4869,-7.75256 0,0 -6.9799,-3.97118 -9.81943,-4.961949 -2.65356,-0.92587 -4.33913,-2.79835 -7.75131,-2.7026 z"
       sodipodi:nodetypes="scscscscscscsscccccscssccscsss" /><path
       style="opacity:1;fill:#000000;stroke-width:0.264583;stroke-linecap:round"
       d="m 74.989842,248.16336 c 0.89109,-0.26454 0.58373,-1.38513 2.67328,-0.79363 l 1.67081,-2.04673 10.1919,7.47684 -3.09099,4.13524 z"
       id="path8"
       sodipodi:nodetypes="cccccc"
       inkscape:export-filename="logo32.png"
       inkscape:export-xdpi="8.6363239"
       inkscape:export-ydpi="8.6363239" /><path
       style="opacity:1;fill:#000000;stroke-width:0.264583;stroke-linecap:round"
       d="m 78.540302,243.40157 c 0,0 0.27472,-2.03189 0.66832,-2.96568 0.32144,-0.76258 1.42018,-1.12779 1.42018,-1.12779 l 12.48926,8.9388 -2.63152,3.67577 z"
       id="path9"
       sodipodi:nodetypes="cscccc" /><path
       style="opacity:1;fill:#000000;stroke-width:0.264583;stroke-linecap:round"
       d="m 87.729722,258.39704 6.9756,-9.10588 12.322178,9.02234 -6.30728,9.18942 z"
       id="path10" /><path
       style="opacity:1;fill:#000000;stroke-width:0.264583;stroke-linecap:round"
       d="m 102.68341,268.71425 5.80605,-8.60464 c 0,-0.50124 -0.66832,-1.08602 -0.66832,-1.08602 l -6.51614,8.72995 z"
       id="path11"
       sodipodi:nodetypes="ccccc" /><path
       id="path7-0-4-4-9"
       style="opacity:1;fill:#365630;fill-opacity:1;stroke-width:0.264583;stroke-linecap:round"
       d="m 51.748346,187.95491 c -0.22748,0.006 -0.46396,0.0281 -0.71055,0.0661 -3.9454,0.60915 -4.5974,2.30745 -5.4529,4.26434 -0.91361,2.08984 -0.28428,6.76488 0.94878,11.08098 -0.89433,-1.33689 -1.9123,-2.64294 -3.00292,-3.82302 -2.264959,-2.45077 -5.348324,-5.85178 -9.651604,-2.84944 -4.303289,3.00233 -1.32615,6.19676 -2.321822,9.03459 -0.992485,2.82875 -4.65892,4.1962 -4.0566,8.14266 0.602334,3.94644 2.299118,4.60074 4.254521,5.45961 2.611069,1.14687 8.489717,-0.31956 12.839015,-2.3213 -1.71645,1.31567 -3.51985,2.80825 -5.153696,4.22455 -2.521591,2.18581 -6.018725,5.1594 -3.154846,9.556 2.863873,4.39667 6.15134,1.52263 8.956042,2.60811 2.79573,1.082 2.88868,4.51496 6.8523,4.03851 3.96362,-0.47645 5.71763,-2.93292 6.08852,-4.35477 0.56277,-2.15744 -1.27761,-8.30198 -3.22565,-13.19816 4.06777,6.29956 5.200968,12.21723 4.760438,19.70629 h 2.70733 c 1.09087,-5.80149 -2.30943,-15.04623 -6.634748,-20.98942 2.05768,1.94965 4.331998,4.35877 5.604308,6.72931 1.57817,2.94037 5.54347,4.56762 8.66252,2.45101 4.314588,-2.98604 1.893168,-5.43108 2.899558,-8.26513 1.00316,-2.82495 4.67452,-4.17843 4.08709,-8.12715 -0.58743,-3.94867 -2.2817,-4.60938 -4.23385,-5.47563 -2.252138,-0.99936 -7.839068,0.57123 -12.661238,2.51044 1.85942,-1.39208 3.69459,-2.95964 5.24464,-4.39715 2.44685,-2.2692 5.842118,-5.3587 2.83239,-9.65677 -3.00976,-4.29811 -6.19868,-1.31504 -9.038198,-2.30581 -2.65356,-0.92587 -4.02665,-4.20454 -7.43883,-4.10879 z" /><text
       xml:space="preserve"
       style="font-style:normal;font-variant:normal;font-weight:bold;font-stretch:normal;font-size:22.5778px;font-family:'Avenir Next';-inkscape-font-specification:'Avenir Next Bold';opacity:1;fill:#000000;stroke-width:0.264583;stroke-linecap:round"
       x="4.1540608"
       y="289.87976"
       id="text11"><tspan
         sodipodi:role="line"
         id="tspan11"
         style="font-style:normal;font-variant:normal;font-weight:bold;font-stretch:normal;font-size:22.5778px;font-family:'Avenir Next';-inkscape-font-specification:'Avenir Next Bold';stroke-width:0.264583"
         x="4.1540608"
         y="289.87976">Sheerluck</tspan></text><g
       id="g12"
       transform="translate(0.88303369,2.6758965)"
       inkscape:export-filename="./logo-light.svg"
       inkscape:export-xdpi="8.6363239"
       inkscape:export-ydpi="8.6363239"><path
         id="path5-6"
         style="fill:#f1febe;fill-opacity:1;stroke-width:0.309117;stroke-linecap:round"
         d="m 128.25402,18.642545 c -20.84613,-1.7e-4 -37.745386,16.89885 -37.745504,37.74498 -1.7e-4,20.84633 16.899164,37.74567 37.745504,37.7455 20.84613,-1.2e-4 37.74515,-16.89937 37.74498,-37.7455 -1.2e-4,-20.84593 -16.89905,-37.74486 -37.74498,-37.74498 z m -0.31988,7.67705 c 16.78266,1.5e-4 30.38766,13.60515 30.38781,30.38781 1.3e-4,16.78286 -13.60495,30.38817 -30.38781,30.38832 -16.78306,1.4e-4 -30.38846,-13.60526 -30.388327,-30.38832 1.49e-4,-16.78286 13.605467,-30.38795 30.388327,-30.38781 z m 30.2643,14.38827 c 10.52981,11.60064 3.23977,30.60577 -0.53537,35.33737 4.44169,-11.07346 6.6034,-22.75514 0.53537,-35.33737 z"
         sodipodi:nodetypes="cccccsssssccc"
         inkscape:export-filename="logo32.png"
         inkscape:export-xdpi="8.6363239"
         inkscape:export-ydpi="8.6363239" /><path
         style="fill:#f1febe;fill-opacity:1;stroke-width:0.264583;stroke-linecap:round"
         d="m 151.12321,92.163175 c 0.89109,-0.26454 0.58373,-1.38513 2.67328,-0.79363 l 1.67081,-2.04673 10.1919,7.47684 -3.09099,4.135245 z"
         id="path8-6"
         sodipodi:nodetypes="cccccc"
         inkscape:export-filename="logo32.png"
         inkscape:export-xdpi="8.6363239"
         inkscape:export-ydpi="8.6363239" /><path
         style="fill:#f1febe;fill-opacity:1;stroke-width:0.264583;stroke-linecap:round"
         d="m 154.67367,87.401385 c 0,0 0.27472,-2.03189 0.66832,-2.96568 0.32144,-0.76258 1.42018,-1.12779 1.42018,-1.12779 l 12.48926,8.9388 -2.63152,3.67577 z"
         id="path9-0"
         sodipodi:nodetypes="cscccc" /><path
         style="fill:#f1febe;fill-opacity:1;stroke-width:0.264583;stroke-linecap:round"
         d="m 163.86309,102.39686 6.9756,-9.105885 12.32218,9.022345 -6.30728,9.18942 z"
         id="path10-2" /><path
         style="fill:#f1febe;fill-opacity:1;stroke-width:0.264583;stroke-linecap:round"
         d="m 178.81678,112.71407 5.80605,-8.60464 c 0,-0.50124 -0.66832,-1.08602 -0.66832,-1.08602 l -6.51614,8.72995 z"
         id="path11-5"
         sodipodi:nodetypes="ccccc" /><path
         id="path7-0-4-4-9-1"
         style="fill:#f1febe;fill-opacity:1;stroke-width:0.264583;stroke-linecap:round"
         d="m 127.88172,31.954725 c -0.22748,0.006 -0.46396,0.0281 -0.71055,0.0661 -3.94541,0.60915 -4.59741,2.30745 -5.45291,4.26434 -0.91361,2.08984 -0.28428,6.76488 0.94878,11.08098 -0.89433,-1.33689 -1.9123,-2.64294 -3.00292,-3.82302 -2.26495,-2.45077 -5.34832,-5.85178 -9.6516,-2.84944 -4.30329,3.00233 -1.32615,6.19676 -2.32182,9.03459 -0.99249,2.82875 -4.65892,4.1962 -4.0566,8.14266 0.60233,3.94644 2.29912,4.60074 4.25452,5.45961 2.61107,1.14687 8.48972,-0.31956 12.83901,-2.3213 -1.71645,1.31567 -3.51985,2.80825 -5.15369,4.22455 -2.52159,2.18581 -6.01873,5.1594 -3.15485,9.556 2.86388,4.39667 6.15134,1.52263 8.95604,2.60811 2.79573,1.082 2.88868,4.51496 6.85231,4.03851 3.96362,-0.47645 5.71763,-2.93292 6.08852,-4.35477 0.56277,-2.15744 -1.27761,-8.30198 -3.22565,-13.19816 4.06777,6.29956 5.20097,12.21723 4.76043,19.70629 h 2.70734 c 1.09087,-5.80149 -2.30944,-15.04623 -6.63475,-20.98942 2.05768,1.94965 4.332,4.35877 5.60431,6.72931 1.57817,2.94037 5.54346,4.56762 8.66252,2.45101 4.31458,-2.98604 1.89316,-5.43108 2.89955,-8.26513 1.00316,-2.82495 4.67452,-4.17843 4.08709,-8.12715 -0.58743,-3.94867 -2.2817,-4.60938 -4.23385,-5.47563 -2.25214,-0.99936 -7.83907,0.57123 -12.66124,2.51044 1.85942,-1.39208 3.69459,-2.95964 5.24464,-4.39715 2.44686,-2.2692 5.84212,-5.3587 2.8324,-9.65677 -3.00976,-4.29811 -6.19868,-1.31504 -9.0382,-2.30581 -2.65356,-0.92587 -4.02665,-4.20454 -7.43883,-4.10879 z" /></g><text
       xml:space="preserve"
       style="font-style:normal;font-variant:normal;font-weight:bold;font-stretch:normal;font-size:22.5778px;font-family:'Avenir Next';-inkscape-font-specification:'Avenir Next Bold';fill:#f1febe;fill-opacity:1;stroke-width:0.264583;stroke-linecap:round"
       x="83.979736"
       y="136.05544"
       id="text11-2"><tspan
         sodipodi:role="line"
         id="tspan11-8"
         style="font-style:normal;font-variant:normal;font-weight:bold;font-stretch:normal;font-size:22.5778px;font-family:'Avenir Next';-inkscape-font-specification:'Avenir Next Bold';fill:#f1febe;fill-opacity:1;stroke-width:0.264583"
         x="83.979736"
         y="136.05544">Sheerluck</tspan></text></g><g
     inkscape:groupmode="layer"
     id="layer3"
     inkscape:label="Layer 3" /></svg>
